<svg width="496" height="616" viewBox="0 0 496 616" fill="none" xmlns="http://www.w3.org/2000/svg">
<path d="M8 358.343C8 480.603 233.085 608 248 608C262.915 608 488 480.603 488 358.343V8H8V358.343Z" stroke="#9C9CC9" stroke-width="16"/>
<path d="M488 153V128L340.809 128C340.809 128 286.243 182.603 252.869 216M488 153C488 153 434.222 207.134 367.272 274.262L488 153ZM133.447 335.5C84.3329 384.645 45.679 423.321 35 434C56.0001 466.5 87.5001 498 118.5 523.4C127.62 514.28 154.822 487.045 190.613 451.205" stroke="#9C9CC9" stroke-width="8"/>
<rect x="8" y="8" width="480" height="120" stroke="#9C9CC9" stroke-width="16"/>
<path d="M65.2507 85.3359L73.4421 41.8125H78.8562L80.4734 48.5625L71.6843 93H65.8132L65.2507 85.3359ZM62.4382 41.8125L69.0476 85.4414L67.9226 93H61.4539L52.2781 41.8125H62.4382ZM86.4148 85.2656L92.989 41.8125H103.114L94.0085 93H87.5046L86.4148 85.2656ZM81.9851 41.8125L90.2468 85.582L89.5789 93H83.7078L74.9539 48.4922L76.6062 41.8125H81.9851Z" fill="#9C9CC9"/>
<path d="M151.974 63.4336V71.9766C151.974 75.5859 151.529 78.75 150.638 81.4688C149.771 84.1641 148.529 86.4258 146.912 88.2539C145.318 90.0586 143.384 91.418 141.111 92.332C138.861 93.2461 136.365 93.7031 133.623 93.7031C130.88 93.7031 128.373 93.2461 126.099 92.332C123.849 91.418 121.904 90.0586 120.263 88.2539C118.646 86.4258 117.392 84.1641 116.502 81.4688C115.611 78.75 115.166 75.5859 115.166 71.9766V63.4336C115.166 59.7305 115.599 56.4961 116.466 53.7305C117.334 50.9414 118.587 48.6211 120.228 46.7695C121.869 44.8945 123.814 43.4883 126.064 42.5508C128.314 41.5898 130.81 41.1094 133.552 41.1094C136.294 41.1094 138.791 41.5898 141.041 42.5508C143.291 43.4883 145.236 44.8945 146.877 46.7695C148.517 48.6211 149.771 50.9414 150.638 53.7305C151.529 56.4961 151.974 59.7305 151.974 63.4336ZM141.744 71.9766V63.3633C141.744 60.9258 141.568 58.8516 141.216 57.1406C140.865 55.4062 140.337 53.9883 139.634 52.8867C138.931 51.7852 138.076 50.9766 137.068 50.4609C136.06 49.9453 134.888 49.6875 133.552 49.6875C132.216 49.6875 131.033 49.9453 130.002 50.4609C128.994 50.9766 128.138 51.7852 127.435 52.8867C126.755 53.9883 126.24 55.4062 125.888 57.1406C125.56 58.8516 125.396 60.9258 125.396 63.3633V71.9766C125.396 74.3203 125.572 76.3242 125.923 77.9883C126.275 79.6523 126.802 81.0117 127.505 82.0664C128.209 83.1211 129.064 83.9062 130.072 84.4219C131.103 84.9141 132.287 85.1602 133.623 85.1602C134.935 85.1602 136.095 84.9141 137.103 84.4219C138.134 83.9062 138.99 83.1211 139.669 82.0664C140.349 81.0117 140.865 79.6523 141.216 77.9883C141.568 76.3242 141.744 74.3203 141.744 71.9766Z" fill="#9C9CC9"/>
<path d="M195.069 84.4922V93H173.799V84.4922H195.069ZM176.963 41.8125V93H166.662V41.8125H176.963Z" fill="#9C9CC9"/>
<path d="M216.999 82.0664L226.702 41.8125H237.812L222.976 93H215.487L216.999 82.0664ZM208.702 41.8125L218.37 82.0664L219.952 93H212.429L197.698 41.8125H208.702Z" fill="#9C9CC9"/>
<path d="M279.254 84.4922V93H257V84.4922H279.254ZM260.199 41.8125V93H249.898V41.8125H260.199ZM276.266 62.5547V70.8164H257V62.5547H276.266ZM279.184 41.8125V50.3555H257V41.8125H279.184Z" fill="#9C9CC9"/>
<path d="M314.122 79.5352C314.122 78.6211 314.04 77.7891 313.876 77.0391C313.712 76.2891 313.36 75.5977 312.821 74.9648C312.305 74.332 311.544 73.6992 310.536 73.0664C309.552 72.4336 308.262 71.7773 306.669 71.0977C304.77 70.3008 302.93 69.457 301.149 68.5664C299.368 67.6523 297.762 66.5977 296.333 65.4023C294.903 64.207 293.766 62.8008 292.923 61.1836C292.102 59.543 291.692 57.6211 291.692 55.418C291.692 53.2617 292.079 51.3047 292.852 49.5469C293.649 47.7891 294.774 46.2891 296.227 45.0469C297.68 43.7812 299.38 42.8086 301.325 42.1289C303.294 41.4492 305.485 41.1094 307.899 41.1094C311.18 41.1094 314.016 41.7891 316.407 43.1484C318.821 44.5078 320.684 46.3711 321.997 48.7383C323.333 51.1055 324.001 53.8242 324.001 56.8945H313.735C313.735 55.4414 313.524 54.1641 313.102 53.0625C312.704 51.9375 312.059 51.0586 311.169 50.4258C310.278 49.793 309.13 49.4766 307.723 49.4766C306.411 49.4766 305.321 49.7461 304.454 50.2852C303.61 50.8008 302.977 51.5156 302.555 52.4297C302.157 53.3203 301.958 54.3281 301.958 55.4531C301.958 56.2969 302.157 57.0586 302.555 57.7383C302.977 58.3945 303.552 58.9922 304.278 59.5312C305.005 60.0469 305.86 60.5508 306.844 61.043C307.852 61.5352 308.954 62.0156 310.149 62.4844C312.469 63.3984 314.52 64.4062 316.302 65.5078C318.083 66.5859 319.571 67.8047 320.766 69.1641C321.962 70.5 322.864 72.0117 323.473 73.6992C324.083 75.3867 324.387 77.3086 324.387 79.4648C324.387 81.5977 324.012 83.543 323.262 85.3008C322.536 87.0352 321.469 88.5352 320.063 89.8008C318.657 91.043 316.958 92.0039 314.966 92.6836C312.997 93.3633 310.794 93.7031 308.356 93.7031C305.989 93.7031 303.751 93.375 301.641 92.7188C299.532 92.0391 297.669 91.0195 296.052 89.6602C294.458 88.2773 293.204 86.5312 292.29 84.4219C291.376 82.2891 290.919 79.7695 290.919 76.8633H301.219C301.219 78.4102 301.372 79.7344 301.677 80.8359C301.981 81.9141 302.45 82.7812 303.083 83.4375C303.716 84.0703 304.489 84.5508 305.403 84.8789C306.341 85.1836 307.407 85.3359 308.602 85.3359C309.962 85.3359 311.04 85.0781 311.837 84.5625C312.657 84.0469 313.243 83.3555 313.594 82.4883C313.946 81.6211 314.122 80.6367 314.122 79.5352Z" fill="#9C9CC9"/>
<path d="M383.998 79.5352C383.998 78.6211 383.916 77.7891 383.752 77.0391C383.588 76.2891 383.237 75.5977 382.698 74.9648C382.182 74.332 381.42 73.6992 380.412 73.0664C379.428 72.4336 378.139 71.7773 376.545 71.0977C374.647 70.3008 372.807 69.457 371.026 68.5664C369.244 67.6523 367.639 66.5977 366.209 65.4023C364.78 64.207 363.643 62.8008 362.799 61.1836C361.979 59.543 361.569 57.6211 361.569 55.418C361.569 53.2617 361.955 51.3047 362.729 49.5469C363.526 47.7891 364.651 46.2891 366.104 45.0469C367.557 43.7812 369.256 42.8086 371.201 42.1289C373.17 41.4492 375.362 41.1094 377.776 41.1094C381.057 41.1094 383.893 41.7891 386.284 43.1484C388.698 44.5078 390.561 46.3711 391.873 48.7383C393.209 51.1055 393.877 53.8242 393.877 56.8945H383.612C383.612 55.4414 383.401 54.1641 382.979 53.0625C382.58 51.9375 381.936 51.0586 381.045 50.4258C380.155 49.793 379.006 49.4766 377.6 49.4766C376.287 49.4766 375.198 49.7461 374.33 50.2852C373.487 50.8008 372.854 51.5156 372.432 52.4297C372.034 53.3203 371.834 54.3281 371.834 55.4531C371.834 56.2969 372.034 57.0586 372.432 57.7383C372.854 58.3945 373.428 58.9922 374.155 59.5312C374.881 60.0469 375.737 60.5508 376.721 61.043C377.729 61.5352 378.83 62.0156 380.026 62.4844C382.346 63.3984 384.397 64.4062 386.178 65.5078C387.959 66.5859 389.448 67.8047 390.643 69.1641C391.838 70.5 392.741 72.0117 393.35 73.6992C393.959 75.3867 394.264 77.3086 394.264 79.4648C394.264 81.5977 393.889 83.543 393.139 85.3008C392.412 87.0352 391.346 88.5352 389.94 89.8008C388.534 91.043 386.834 92.0039 384.842 92.6836C382.873 93.3633 380.67 93.7031 378.233 93.7031C375.866 93.7031 373.627 93.375 371.518 92.7188C369.409 92.0391 367.545 91.0195 365.928 89.6602C364.334 88.2773 363.08 86.5312 362.166 84.4219C361.252 82.2891 360.795 79.7695 360.795 76.8633H371.096C371.096 78.4102 371.248 79.7344 371.553 80.8359C371.858 81.9141 372.326 82.7812 372.959 83.4375C373.592 84.0703 374.366 84.5508 375.28 84.8789C376.217 85.1836 377.284 85.3359 378.479 85.3359C379.838 85.3359 380.916 85.0781 381.713 84.5625C382.534 84.0469 383.119 83.3555 383.471 82.4883C383.823 81.6211 383.998 80.6367 383.998 79.5352Z" fill="#9C9CC9"/>
<path d="M432.823 75.9492H443.054C442.913 79.793 442.14 83.0391 440.734 85.6875C439.327 88.3125 437.323 90.3047 434.722 91.6641C432.144 93.0234 429.026 93.7031 425.37 93.7031C422.534 93.7031 420.015 93.2344 417.812 92.2969C415.609 91.3359 413.734 89.9297 412.187 88.0781C410.64 86.2266 409.468 83.9414 408.671 81.2227C407.898 78.4805 407.511 75.3281 407.511 71.7656V63.082C407.511 59.5195 407.921 56.3672 408.741 53.625C409.585 50.8828 410.78 48.5859 412.327 46.7344C413.898 44.8594 415.784 43.4531 417.987 42.5156C420.214 41.5547 422.722 41.0742 425.511 41.0742C429.237 41.0742 432.355 41.7773 434.862 43.1836C437.37 44.5898 439.304 46.6406 440.663 49.3359C442.046 52.0078 442.878 55.2773 443.159 59.1445H432.894C432.823 56.707 432.542 54.7969 432.05 53.4141C431.581 52.0078 430.831 51.0234 429.8 50.4609C428.769 49.875 427.339 49.582 425.511 49.582C424.151 49.582 422.98 49.8281 421.995 50.3203C421.011 50.7891 420.202 51.5508 419.569 52.6055C418.937 53.6602 418.468 55.043 418.163 56.7539C417.882 58.4648 417.741 60.5508 417.741 63.0117V71.7656C417.741 74.1797 417.87 76.2422 418.128 77.9531C418.386 79.6406 418.796 81.0234 419.359 82.1016C419.921 83.1797 420.683 83.9648 421.644 84.457C422.628 84.9492 423.87 85.1953 425.37 85.1953C427.105 85.1953 428.499 84.9375 429.554 84.4219C430.632 83.9062 431.429 82.9805 431.944 81.6445C432.46 80.3086 432.753 78.4102 432.823 75.9492Z" fill="#9C9CC9"/>
<path d="M365.765 272.257C353.237 255.863 342.619 246.926 342.619 246.926M365.765 272.257C409.145 224.696 383.36 173 383.36 173L294.372 215.908H248.028H201.693L112.705 173C112.705 173 86.92 224.696 130.3 272.257M365.765 272.257C377.682 287.85 391.187 309.723 399.065 337.533C385.059 328.905 366.5 327.5 354.806 342.763C382.5 353.5 380.5 404.5 380.5 404.5C329.5 389 281.667 463.727 293.528 533H248.028H202.537C214.398 463.727 166.565 389 115.565 404.5C115.565 404.5 113.565 353.5 141.259 342.763C129.565 327.5 111.006 328.905 97 337.533C104.878 309.723 118.383 287.85 130.3 272.257M130.3 272.257C142.828 255.863 153.446 246.926 153.446 246.926" stroke="#9C9CC9" stroke-width="8" stroke-miterlimit="3.52094"/>
<path d="M291.416 382.933C299.561 374.787 307.622 366.726 315.523 358.825C325.79 371.886 324.903 390.856 312.863 402.896C300.823 414.936 281.853 415.823 268.792 405.556C276.367 397.981 283.928 390.421 291.416 382.933Z" stroke="#9C9CC9" stroke-width="8"/>
<path d="M219 533.091C219 517.024 232.025 504 248.091 504C264.157 504 277.182 517.024 277.182 533.091C257.468 533.091 237.797 533.091 219 533.091Z" stroke="#9C9CC9" stroke-width="8"/>
<path d="M204.666 382.933C196.52 374.787 188.46 366.726 180.558 358.825C170.292 371.886 171.178 390.856 183.218 402.896C195.258 414.936 214.228 415.823 227.289 405.556C219.714 397.981 212.154 390.421 204.666 382.933Z" stroke="#9C9CC9" stroke-width="8"/>
</svg>
